<!--?xml version="1.0" encoding="utf-8"?-->
<!-- Generator: Adobe Illustrator 18.1.1, SVG Export Plug-In . SVG Version: 6.00 Build 0)  -->

<svg version="1.1" id="_x31_0" xmlns="http://www.w3.org/2000/svg" xmlns:xlink="http://www.w3.org/1999/xlink" x="0px" y="0px" viewBox="0 0 512 512" style="width: 256px; height: 256px; opacity: 1;" xml:space="preserve">
<style type="text/css">
	.st0{fill:#374149;}
</style>
<g>
	<path class="st0" d="M467.892,344.344l-1.762-57.894l-0.078,0.046l-0.007-0.183l-98.821,61.304l-49.512,30.622l0.082,0.043
		l-0.156,0.098l22.039,11.808l10.199,5.551c-27.555,18.465-60.25,28.683-93.879,28.683c-83.293,0-154.961-62.035-166.703-144.293
		L2.596,292.504C20.459,417.637,129.4,512,255.998,512c66.164,0,129.992-25.926,177.477-71.55l25.266,13.538l12.699,6.891
		l-0.004-0.09l0.164,0.086L467.892,344.344z" style="fill: rgb(58, 171, 210);"></path>
	<path class="st0" d="M45.865,225.55l0.082-0.046l0.004,0.183l98.875-61.336l49.461-30.59l-0.082-0.043l0.156-0.098l-22.004-11.789
		l-10.234-5.566c27.551-18.465,60.246-28.687,93.875-28.687c83.293,0,154.961,62.035,166.703,144.293l86.703-12.375
		C491.541,94.363,382.6,0,255.998,0C189.834,0,126.006,25.93,78.525,71.554L53.108,57.934L40.56,51.121v0.09l-0.16-0.086
		l3.691,116.157L45.865,225.55z" style="fill: rgb(58, 171, 210);"></path>
</g>
</svg>
